<?xml version="1.0" encoding="utf-8"?>
<!-- Generator: Adobe Illustrator 22.1.0, SVG Export Plug-In . SVG Version: 6.00 Build 0)  -->
<svg version="1.1" id="Layer_1" xmlns="http://www.w3.org/2000/svg" xmlns:xlink="http://www.w3.org/1999/xlink" x="0px" y="0px"
	 viewBox="0 0 275.5 216.1" style="enable-background:new 0 0 275.5 216.1;" xml:space="preserve">
<style type="text/css">
	.st0{fill:none;}
	.st1{fill:#691F74;}
	.st2{fill:#19322F;}
	.st3{fill:#FFFFFF;}
</style>
<path class="st0" d="M39.1,129.2c-0.6,0.5-1.2,0.9-1.8,1.4c-0.1,1.4-0.1,2.9-0.3,4.4c-0.3,3.8-0.7,6.7-1.2,8.9h8.9
	c-0.8-3.5-1.3-7.7-1.4-12.7c-0.1-2.6-0.1-4.7-0.1-6.1c-0.3,0.4-0.6,0.7-0.9,1.1C41.3,127.3,40.3,128.3,39.1,129.2z"/>
<path class="st0" d="M39,127.1c0.5-0.6,1.1-1.3,1.6-2.1c0.2-0.4,0.5-0.8,0.7-1.2h-4c0,0,0,0.1,0,0.2c0,0.1,0.1,0.2,0.1,0.2
	c0,1.4,0,2.9-0.1,4.5C37.9,128.3,38.5,127.7,39,127.1z"/>
<path class="st0" d="M53.4,111.1c0.9,0,1.8-0.1,2.6-0.3c0.8-0.2,1.7-0.6,2.4-1.1c0.8-0.5,1.5-1,2.2-1.7c0.7-0.7,1.4-1.4,2-2.2
	c0.6-0.8,1.2-1.7,1.7-2.6c0.5-0.9,1-1.9,1.4-2.9c0.4-1,0.7-2,1-3s0.5-2.1,0.6-3.1c0-0.3,0.1-0.7,0.1-1.1c0-0.4,0.1-0.8,0-1.2
	c0-0.4-0.1-0.7-0.3-1c-0.1-0.3-0.4-0.4-0.7-0.4c-0.4,0-1,0.1-1.6,0.4c-0.6,0.3-1.3,0.8-2,1.4c-0.7,0.6-1.5,1.3-2.3,2.1
	c-0.8,0.8-1.6,1.7-2.4,2.7c-0.8,1-1.6,2-2.4,3.1s-1.5,2.2-2.2,3.4c-0.7,1.2-1.3,2.3-1.9,3.5s-1.1,2.3-1.5,3.5c0.5,0.1,1,0.2,1.6,0.3
	C52.4,111,52.9,111.1,53.4,111.1z"/>
<path class="st0" d="M143.8,92.2c0.5-1,0.8-1.8,1-2.6H140c-0.9,0-1.7,0.2-2.5,0.5c-0.8,0.3-1.5,0.8-2.2,1.3c-0.7,0.6-1.3,1.2-1.9,2
	c-0.6,0.8-1.1,1.6-1.6,2.5c-0.5,0.9-1,1.8-1.4,2.8c-0.4,1-0.8,2-1.1,3c-0.3,1-0.7,2-0.9,3c-0.3,1-0.5,1.9-0.7,2.7
	c0,0.2-0.1,0.5-0.1,0.7c0,0.3,0,0.6,0,0.8c0,0.3,0.1,0.5,0.2,0.6c0.1,0.2,0.3,0.2,0.5,0.2c0.5-0.1,1.2-0.3,1.9-0.8
	c0.7-0.4,1.5-1,2.3-1.7c0.8-0.7,1.7-1.6,2.5-2.5c0.9-0.9,1.7-1.9,2.6-3c0.9-1.1,1.7-2.1,2.5-3.3c0.8-1.1,1.5-2.2,2.2-3.3
	S143.3,93.2,143.8,92.2z"/>
<path class="st0" d="M87.4,154c8.6,0,12.9-4.7,12.9-14c0-1.3-0.1-2.6-0.2-4c-0.4-3.7-1.4-6.5-3-8.4c-2.1-2.4-5.4-3.7-10-3.7
	c-0.5,0-1.2,0-2.1,0c0.1,0.7,0.1,10.3,0.1,28.7L85,154H87.4z"/>
<path class="st1" d="M164.8,65.1C164.6,65.7,164.9,65.4,164.8,65.1L164.8,65.1z"/>
<g>
	<path class="st1" d="M178,98.1c0.8-3.6,1.8-6.6,3-9.1s2.5-4.6,4-6.2c1.5-1.6,3-2.8,4.8-3.5c1.7-0.8,3.5-1.1,5.3-1.1
		c0.8,0,1.5,0.1,2.3,0.2c0.7,0.2,1.4,0.5,2,0.9c0.6,0.4,1,1,1.4,1.7c0.3,0.7,0.5,1.7,0.5,2.8c0.4-0.4,0.8-0.7,1.3-1
		c0.5-0.3,1-0.7,1.4-1c0.5-0.3,0.8-0.7,1.2-1.1c0.3-0.4,0.5-0.8,0.5-1.2c0-0.4,0-0.7-0.1-1c-0.1-0.3-0.3-0.6-0.5-0.8
		c-0.2-0.2-0.5-0.4-0.8-0.6c-0.3-0.2-0.6-0.3-1-0.5c-0.4-0.1-0.7-0.2-1.1-0.3c-0.4-0.1-0.8-0.1-1.2-0.2c-0.4,0-0.8-0.1-1.2-0.1
		s-0.8,0-1.1,0c-1.5,0-3,0.2-4.5,0.5c-1.5,0.4-3,0.9-4.4,1.5s-2.8,1.4-4.1,2.4c-1.3,0.9-2.6,2-3.8,3.1c-1.2,1.1-2.3,2.4-3.3,3.7
		c-1,1.3-1.9,2.7-2.7,4.2c-0.8,1.4-1.4,2.9-1.9,4.5c-0.5,1.5-0.8,3.1-1,4.7c-0.2,1.4-0.2,2.7-0.2,3.8c0,1.1,0.1,2.1,0.3,3
		c0.2,0.9,0.4,1.6,0.8,2.3s0.7,1.2,1.2,1.6c0.5,0.5,1,0.8,1.5,1.1c0.5,0.3,1.1,0.5,1.8,0.7c0.6,0.2,1.3,0.3,2,0.4
		c0.7,0.1,1.4,0.2,2.1,0.2c1.2,0.1,2.4,0,3.5-0.1c1.2-0.2,2.3-0.5,3.5-0.8c1.1-0.4,2.3-0.8,3.4-1.3c1.1-0.5,2.3-1.1,3.4-1.7l0.3-1.6
		c-0.9,0.4-1.7,0.8-2.6,1.2c-0.9,0.4-1.7,0.7-2.6,1c-0.9,0.3-1.8,0.5-2.6,0.7c-0.9,0.2-1.7,0.3-2.6,0.3c-0.9,0-1.8-0.1-2.5-0.3
		c-0.8-0.2-1.4-0.5-2-0.9c-0.6-0.4-1.1-0.9-1.5-1.4c-0.4-0.5-0.8-1.1-1.1-1.7c-0.3-0.6-0.5-1.3-0.7-2c-0.2-0.7-0.3-1.4-0.3-2.2
		c0-0.7,0-1.5,0-2.2C177.7,99.5,177.8,98.8,178,98.1z"/>
	<path class="st1" d="M221.4,130.3c-0.6-0.2-1.1-0.5-1.7-0.7c-0.5-0.2-1.1-0.4-1.7-0.6c-0.1,0.2-0.2,0.4-0.3,0.5s-0.2,0.3-0.3,0.5
		c-0.1,0.2-0.2,0.3-0.3,0.5c-0.1,0.2-0.2,0.4-0.2,0.5c-0.1,0.6-0.1,1,0.1,1.4c0.2,0.4,0.6,0.7,1,0.9c0.4,0.2,0.9,0.4,1.4,0.5
		c0.5,0.1,1,0.1,1.5,0c2.1-0.2,4-0.7,5.7-1.3v-1.8c-0.5,0.1-1.1,0.2-1.7,0.2c-0.6,0-1.2-0.1-1.8-0.2
		C222.5,130.7,221.9,130.5,221.4,130.3z"/>
	<path class="st1" d="M205.9,102.5c0.5-1.6,1.1-3.1,1.7-4.7c0.6-1.5,1.2-3.1,1.7-4.6c0.6-1.5,1.1-3.1,1.5-4.7c0-0.2,0.1-0.4,0-0.6
		c0-0.2-0.1-0.4-0.2-0.6c-0.1-0.2-0.2-0.3-0.3-0.4c-0.1-0.1-0.3-0.2-0.5-0.2c-0.6,0-1.3,0.3-2,0.7c-0.7,0.4-1.4,0.9-2,1.4
		c-0.7,0.6-1.4,1.1-2.1,1.8c-0.7,0.6-1.4,1.1-2.1,1.6l0.7,0.6c0.3-0.2,0.5-0.4,0.7-0.6c0.2-0.2,0.5-0.4,0.7-0.6
		c0.2-0.2,0.5-0.4,0.7-0.5c0.2-0.2,0.5-0.3,0.8-0.3c0.2,0,0.3,0,0.3,0.1c0.1,0.1,0.1,0.2,0.1,0.4c0,0.2,0,0.3,0,0.5
		c0,0.2-0.1,0.4-0.1,0.5c-0.5,1.6-1,3.2-1.6,4.7c-0.6,1.6-1.2,3.1-1.8,4.7c-0.6,1.6-1.2,3.1-1.7,4.7c-0.6,1.6-1,3.2-1.5,4.7
		c-0.1,0.2-0.1,0.5-0.1,0.7c0,0.3,0,0.5,0.1,0.7c0.1,0.2,0.2,0.4,0.3,0.6c0.1,0.2,0.3,0.2,0.5,0.2c0.6,0,1.2-0.2,1.9-0.6
		c0.7-0.4,1.4-0.9,2.1-1.5c0.7-0.6,1.4-1.3,2.2-2c0.7-0.7,1.4-1.4,2-2.2c-0.1-0.1-0.1-0.2-0.2-0.3c-0.1-0.1-0.1-0.2-0.2-0.3
		c-0.2,0.2-0.5,0.4-0.7,0.6c-0.2,0.2-0.5,0.4-0.7,0.6c-0.2,0.2-0.5,0.4-0.7,0.5s-0.5,0.3-0.8,0.3c-0.1,0-0.2,0-0.3-0.1
		c-0.1-0.1-0.1-0.2-0.1-0.4c0-0.2,0-0.3,0-0.5c0-0.2,0-0.3,0.1-0.5C204.9,105.6,205.4,104,205.9,102.5z"/>
	<path class="st1" d="M212.6,80.7c0.3-0.3,0.6-0.7,0.9-1.1c0.2-0.4,0.4-0.8,0.6-1.2c0.1-0.3,0.1-0.5,0-0.8c-0.1-0.2-0.2-0.5-0.4-0.7
		c-0.2-0.2-0.4-0.4-0.7-0.5c-0.3-0.1-0.5-0.2-0.8-0.2c-0.5,0-0.9,0.1-1.3,0.3c-0.4,0.2-0.8,0.5-1.1,0.8c-0.3,0.3-0.6,0.7-0.7,1.1
		c-0.2,0.4-0.3,0.9-0.3,1.3c-0.1,0.7,0,1.3,0.3,1.6c0.3,0.3,0.7,0.5,1.2,0.5c0.4,0,0.9-0.1,1.3-0.3
		C211.9,81.3,212.3,81.1,212.6,80.7z"/>
	<path class="st1" d="M228.5,89.6c0.8-0.3,1.5-0.7,2.1-1.1l-0.4-0.6c-0.5,0.2-1,0.4-1.6,0.5c-0.6,0.1-1.2,0.2-1.9,0.2
		c-0.7,0-1.3,0-2,0c-0.7,0-1.3-0.1-2-0.2c0.3-1,0.8-2.1,1.3-3.1c0.5-1,1.1-2,1.7-3l-0.3-0.3c-1.2,1-2.4,2-3.4,2.8
		c-1.1,0.8-2.1,1.6-3.1,2.3c-1,0.7-2,1.4-3.1,2c-1,0.6-2.2,1.3-3.4,1.9l0.1,0.5c0.4-0.2,0.9-0.4,1.3-0.5c0.5-0.1,0.9-0.2,1.4-0.2
		c0.5,0,0.9,0,1.4,0c0.5,0,0.9,0,1.4,0c-0.6,1.7-1.1,3.4-1.7,5.1c-0.6,1.7-1.2,3.4-1.8,5.1c-0.6,1.7-1.1,3.4-1.7,5.1
		c-0.5,1.7-1,3.4-1.5,5.1c-0.1,0.2-0.1,0.5-0.1,0.8c0,0.3,0,0.6,0.1,0.8c0.1,0.2,0.2,0.4,0.3,0.6c0.1,0.2,0.3,0.2,0.5,0.2
		c0.2,0,0.5-0.1,0.8-0.2c0.3-0.1,0.6-0.3,1-0.5c0.3-0.2,0.7-0.4,1.1-0.7c0.4-0.3,0.8-0.5,1.2-0.9c0.4-0.3,0.8-0.6,1.2-1
		c0.4-0.3,0.8-0.7,1.2-1c0.4-0.3,0.7-0.7,1.1-1c0.4-0.3,0.7-0.7,1-1l-0.4-0.3c-0.3,0.2-0.5,0.4-0.8,0.6c-0.3,0.2-0.5,0.4-0.8,0.6
		c-0.3,0.2-0.5,0.4-0.8,0.5c-0.3,0.1-0.6,0.2-0.8,0.2c-0.2,0-0.3-0.1-0.4-0.2c-0.1-0.1-0.1-0.3-0.2-0.5c0-0.2,0-0.4,0-0.7
		c0-0.2,0.1-0.4,0.1-0.6c0.3-1.4,0.7-2.7,1.1-4.1c0.4-1.4,0.8-2.7,1.3-4c0.4-1.3,0.9-2.7,1.4-4c0.5-1.3,0.9-2.7,1.3-4
		c0.7,0.2,1.4,0.3,2.2,0.3c0.8,0,1.5-0.1,2.3-0.3C227,90.2,227.8,90,228.5,89.6z"/>
	<path class="st1" d="M247.8,88.8c-0.3,1.1-0.7,2.2-1.2,3.2c-0.5,1.1-1,2.1-1.6,3.2c-0.6,1.1-1.3,2.1-2,3.1c-0.7,1-1.5,2-2.2,2.9
		s-1.6,1.8-2.4,2.7c-0.8,0.9-1.6,1.7-2.5,2.4c-0.8,0.8-1.7,1.4-2.5,2.1c-0.8,0.6-1.6,1.2-2.4,1.7c-0.1,0.1-0.2,0.1-0.3,0
		c-0.1-0.1-0.2-0.2-0.3-0.3c-0.1-0.1-0.1-0.3-0.2-0.4c0-0.2,0-0.3,0-0.4c0.5-1.7,1-3.3,1.7-4.9c0.6-1.6,1.2-3.3,1.9-4.9
		c0.6-1.6,1.2-3.3,1.8-4.9c0.6-1.6,1.1-3.3,1.5-5c0.1-0.3,0.1-0.5,0-0.9c0-0.3-0.1-0.6-0.2-0.9c-0.1-0.3-0.3-0.5-0.5-0.6
		c-0.2-0.1-0.4-0.2-0.7-0.1c-0.7,0.3-1.4,0.6-2.1,1.1c-0.7,0.4-1.4,0.9-2,1.4c-0.6,0.5-1.2,1.1-1.8,1.6c-0.6,0.6-1,1.1-1.5,1.6
		l0.4,0.3c0.2-0.2,0.5-0.3,0.7-0.5c0.2-0.2,0.5-0.4,0.7-0.6c0.2-0.2,0.5-0.3,0.7-0.5c0.2-0.2,0.5-0.3,0.8-0.3c0.1,0,0.2,0,0.3,0
		c0.1,0.1,0.1,0.1,0.2,0.2c0,0.1,0.1,0.2,0.1,0.3s0,0.2,0,0.3c-0.5,1.6-1,3.2-1.6,4.8c-0.6,1.6-1.2,3.2-1.8,4.8
		c-0.6,1.6-1.2,3.2-1.7,4.8c-0.5,1.6-1,3.2-1.4,4.8c-0.1,0.2-0.1,0.5-0.1,0.7c0,0.3,0.1,0.5,0.2,0.7c0.1,0.2,0.2,0.4,0.4,0.5
		c0.2,0.1,0.4,0.2,0.6,0.2c0.6,0,1.2-0.2,1.9-0.5c0.7-0.3,1.4-0.6,2.2-1.1c0.8-0.5,1.5-1,2.3-1.6c0.8-0.6,1.6-1.3,2.4-2
		c0.8-0.7,1.6-1.4,2.4-2.2c0.8-0.8,1.5-1.5,2.2-2.3c0.7-0.8,1.4-1.5,2-2.2c0.6-0.7,1.2-1.4,1.8-2c-0.5,1.2-0.9,2.5-1.4,4.1
		c-0.5,1.5-1,3.1-1.5,4.8c-0.5,1.7-1.1,3.4-1.6,5.2c-0.6,1.8-1.2,3.5-1.9,5.2c-0.7,1.7-1.5,3.2-2.3,4.7c-0.8,1.5-1.8,2.8-2.8,3.9
		c-0.8,0.9-1.7,1.6-2.6,2.2v1.6c1.1-0.6,2.1-1.2,3-1.9c1.6-1.2,3-2.6,4.2-4.2c1.2-1.6,2.3-3.2,3.3-5c1-1.8,1.8-3.6,2.5-5.5
		s1.4-3.8,2.1-5.8c0.6-1.9,1.2-3.9,1.8-5.8c0.6-1.9,1.1-3.7,1.7-5.4c0.7-1.9,1.3-3.8,2.1-5.6c0.7-1.8,1.4-3.6,2.1-5.5L247.8,88.8z"
		/>
	<path class="st1" d="M76.6,46.8c16.4-16.4,38.1-25.4,61.3-25.4s44.9,9,61.3,25.4c6.5,6.5,11.8,13.8,15.8,21.7h23.5
		c-5.4-13.6-13.5-26.1-24.2-36.8C193.9,11.2,166.7,0,137.9,0s-56,11.2-76.4,31.7C50.8,42.3,42.6,54.8,37.3,68.5h23.5
		C64.8,60.6,70.1,53.3,76.6,46.8z"/>
	<path class="st1" d="M199.1,169.3c-16.4,16.4-38.1,25.4-61.3,25.4s-44.9-9-61.3-25.4c-2.8-2.8-5.4-5.7-7.7-8.8H43.3
		c4.8,8.7,10.9,16.8,18.1,24c20.4,20.4,47.5,31.7,76.4,31.7s56-11.2,76.4-31.7c7.2-7.2,13.3-15.3,18.1-24h-25.6
		C204.5,163.6,201.9,166.5,199.1,169.3z"/>
	<path class="st1" d="M39.7,109.8c0.7-0.6,1.4-1.2,2-1.8c0.6-0.6,1.2-1.3,1.6-2c0.5-0.7,0.9-1.4,1.2-2.2c0.3-0.7,0.6-1.5,0.7-2.2
		c0.2-0.8,0.2-1.5,0.2-2.1c0-0.7-0.2-1.3-0.4-1.9c-0.2-0.6-0.5-1.2-0.8-1.7c-0.3-0.5-0.7-1-1.1-1.5c-0.4-0.5-0.8-1-1.3-1.4
		c-0.5-0.5-0.9-0.9-1.4-1.3c-0.5-0.4-0.9-0.9-1.4-1.3c-0.5-0.4-0.9-0.9-1.3-1.4c-0.3-0.3-0.5-0.7-0.7-1.1c-0.2-0.4-0.4-0.9-0.5-1.3
		c-0.1-0.5-0.2-0.9-0.2-1.4c0-0.5,0-1,0.1-1.5c0.1-0.7,0.4-1.4,0.8-2c0.4-0.7,1-1.3,1.7-1.9c0.7-0.6,1.4-1,2.3-1.4
		c0.9-0.4,1.8-0.6,2.8-0.6c0.6,0,1.2,0.1,1.8,0.2c0.6,0.2,1.1,0.5,1.5,0.9c0.4,0.4,0.8,0.9,1,1.6c0.2,0.6,0.3,1.4,0.2,2.3
		c0.1,0,0.2-0.1,0.4-0.2c0.2-0.1,0.3-0.2,0.5-0.4c0.2-0.1,0.4-0.3,0.7-0.5c0.2-0.2,0.5-0.4,0.7-0.6c0.2-0.2,0.5-0.4,0.7-0.6
		c0.2-0.2,0.4-0.4,0.6-0.6s0.3-0.4,0.4-0.6c0.1-0.2,0.2-0.4,0.2-0.5c0.1-0.3,0-0.6,0-0.8c-0.1-0.2-0.2-0.5-0.4-0.7
		c-0.2-0.2-0.4-0.4-0.6-0.5c-0.3-0.2-0.5-0.3-0.8-0.4c-0.3-0.1-0.6-0.2-1-0.3c-0.3-0.1-0.7-0.1-1-0.2c-0.3-0.1-0.7-0.1-1-0.1
		c-0.3,0-0.7,0-1,0c-1,0-1.9,0-2.8,0.2c-0.9,0.2-1.8,0.4-2.7,0.7c-0.9,0.3-1.7,0.7-2.5,1.1c-0.8,0.4-1.5,0.9-2.2,1.5
		c-0.7,0.5-1.3,1.1-1.8,1.7c-0.6,0.6-1,1.3-1.5,1.9c-0.4,0.7-0.8,1.3-1,2c-0.3,0.7-0.4,1.4-0.5,2.1c-0.1,0.6-0.1,1.1,0,1.7
		c0.1,0.6,0.2,1.1,0.3,1.6c0.2,0.5,0.4,1,0.6,1.5c0.3,0.5,0.5,0.9,0.9,1.3c0.4,0.4,0.8,0.8,1.2,1.2c0.4,0.4,0.9,0.8,1.3,1.2
		c0.4,0.4,0.9,0.8,1.3,1.2c0.4,0.4,0.8,0.8,1.2,1.2c0.4,0.4,0.7,0.8,1,1.3c0.3,0.4,0.6,0.9,0.7,1.4c0.2,0.5,0.3,1,0.4,1.6
		c0.1,0.6,0,1.2-0.1,1.8c-0.2,0.9-0.5,1.8-1,2.6c-0.5,0.9-1.1,1.7-1.9,2.4c-0.8,0.7-1.6,1.3-2.6,1.8c-1,0.5-2.1,0.7-3.3,0.8
		c-0.7,0-1.5-0.1-2.1-0.4c-0.7-0.3-1.3-0.7-1.8-1.3c-0.5-0.5-0.9-1.2-1.2-1.9c-0.3-0.7-0.4-1.5-0.3-2.3c-0.4,0.3-0.8,0.6-1.3,0.9
		s-0.9,0.7-1.3,1.1c-0.4,0.4-0.7,0.8-1,1.2c-0.3,0.4-0.5,0.9-0.6,1.3c-0.1,0.3,0,0.6,0.1,0.9c0.1,0.3,0.2,0.5,0.4,0.7
		c0.2,0.2,0.4,0.4,0.7,0.6c0.3,0.2,0.6,0.3,1,0.5c0.3,0.1,0.7,0.3,1.1,0.4c0.4,0.1,0.8,0.2,1.2,0.2c0.4,0.1,0.8,0.1,1.2,0.2
		c0.4,0,0.7,0.1,1.1,0.1c1,0,1.9,0,2.9-0.2c0.9-0.2,1.9-0.4,2.7-0.7c0.9-0.3,1.7-0.7,2.6-1.2C38.2,110.9,38.9,110.4,39.7,109.8z"/>
	<path class="st1" d="M31.4,130.8c-0.6-0.1-1.2-0.1-1.9-0.2c-0.6-0.1-1.2-0.2-1.8-0.3c-0.6-0.1-1.2-0.3-1.8-0.5
		c-0.6-0.2-1.1-0.5-1.6-0.8c-0.1,0.2-0.2,0.3-0.4,0.5c-0.1,0.1-0.3,0.3-0.4,0.4c-0.1,0.1-0.2,0.3-0.3,0.5c-0.1,0.2-0.2,0.3-0.2,0.6
		c-0.1,0.4,0,0.8,0.2,1.1c0.2,0.4,0.5,0.7,0.9,0.9c0.4,0.3,0.8,0.5,1.2,0.6c0.5,0.1,0.9,0.2,1.3,0.2c1.6,0,3.2-0.1,4.6-0.5
		c1-0.3,1.9-0.6,2.8-1c0-0.6,0-1.2,0.1-1.8c-0.2,0.1-0.4,0.1-0.6,0.2C32.8,130.8,32.1,130.8,31.4,130.8z"/>
	<path class="st1" d="M40.6,125.1c-0.5,0.8-1,1.4-1.6,2.1c-0.5,0.6-1.1,1.2-1.7,1.6c0,0.6,0,1.2-0.1,1.8c0.6-0.4,1.2-0.9,1.8-1.4
		c1.2-0.9,2.2-2,3.2-3c0.3-0.4,0.6-0.7,0.9-1.1c0-0.5,0-0.9,0.1-1.2h-1.9C41.1,124.3,40.9,124.7,40.6,125.1z"/>
	<path class="st1" d="M51.7,94.9c-0.3,0.9-0.6,1.9-0.9,2.9c-0.3,1-0.6,2-0.9,3.1c-0.3,1.1-0.6,2.1-0.9,3.2c-0.3,1.1-0.7,2.2-1,3.3
		s-0.7,2.2-1,3.3c-0.4,1.1-0.7,2.2-1.1,3.2c-0.4,1.1-0.8,2.1-1.2,3.1c-0.4,1-0.8,2-1.2,2.9c-0.4,0.9-0.9,1.8-1.3,2.7
		c-0.1,0.2-0.2,0.4-0.3,0.6h3c0.1-0.1,0.2-0.2,0.3-0.4c0.8-1.2,1.5-2.3,2.1-3.4c0.6-1.1,1.1-2.2,1.6-3.3c0.4-1,0.8-2,1-2.8
		c1.3,0,2.7-0.1,4-0.4c1.3-0.3,2.6-0.8,3.9-1.4c1.3-0.6,2.5-1.3,3.7-2.2c1.2-0.8,2.3-1.8,3.3-2.8c1-1,2-2.1,2.9-3.3
		c0.9-1.2,1.7-2.3,2.4-3.6s1.3-2.5,1.8-3.7c0.5-1.3,0.8-2.5,1-3.7c0.1-0.5,0.1-1.1,0.1-1.7s-0.1-1.2-0.2-1.7c-0.1-0.5-0.4-1-0.7-1.4
		c-0.3-0.4-0.7-0.6-1.2-0.7c-0.4-0.1-0.9,0-1.5,0.1c-0.5,0.2-1.1,0.4-1.8,0.8c-0.6,0.4-1.3,0.8-2,1.3c-0.7,0.5-1.5,1.1-2.2,1.7
		c-0.8,0.6-1.5,1.3-2.3,2.1c-0.8,0.7-1.6,1.5-2.4,2.3c-0.8,0.8-1.6,1.6-2.3,2.5c-0.8,0.9-1.5,1.7-2.3,2.6c0.3-0.9,0.7-1.9,1-2.8
		c0.4-0.9,0.7-1.9,1-2.8c0.3-0.9,0.7-1.9,1-2.8c0.3-0.9,0.5-1.9,0.7-2.8c0-0.2,0-0.5,0-0.7c0-0.3-0.1-0.5-0.2-0.7
		c-0.1-0.2-0.2-0.4-0.4-0.6c-0.2-0.1-0.3-0.2-0.6-0.2c-0.4,0-0.7,0-1.1,0.1c-0.4,0.1-0.7,0.2-1.1,0.4c-0.4,0.2-0.7,0.4-1.1,0.7
		c-0.4,0.3-0.7,0.6-1.1,0.9c-0.4,0.3-0.7,0.6-1.1,1s-0.7,0.7-1.1,1c-0.4,0.3-0.7,0.6-1.1,0.9c-0.4,0.3-0.7,0.6-1.1,0.8l0.5,0.8
		c0.3-0.2,0.6-0.4,0.9-0.7c0.3-0.2,0.6-0.5,0.8-0.7c0.3-0.2,0.6-0.4,0.9-0.6c0.3-0.2,0.6-0.3,0.9-0.4c0.1,0,0.2,0,0.3,0
		c0.1,0.1,0.2,0.2,0.2,0.3c0.1,0.1,0.1,0.3,0.1,0.4c0,0.1,0,0.3,0,0.4C52.3,93,52,93.9,51.7,94.9z M53.7,103.6
		c0.7-1.2,1.4-2.3,2.2-3.4s1.6-2.1,2.4-3.1c0.8-1,1.6-1.9,2.4-2.7c0.8-0.8,1.5-1.5,2.3-2.1c0.7-0.6,1.4-1,2-1.4
		c0.6-0.3,1.1-0.5,1.6-0.4c0.3,0,0.5,0.1,0.7,0.4c0.1,0.3,0.2,0.6,0.3,1c0,0.4,0,0.8,0,1.2c0,0.4-0.1,0.8-0.1,1.1
		c-0.1,1-0.4,2-0.6,3.1s-0.6,2-1,3c-0.4,1-0.8,1.9-1.4,2.9c-0.5,0.9-1.1,1.8-1.7,2.6c-0.6,0.8-1.3,1.5-2,2.2
		c-0.7,0.7-1.4,1.2-2.2,1.7c-0.8,0.5-1.6,0.8-2.4,1.1c-0.8,0.2-1.7,0.4-2.6,0.3c-0.5,0-1.1-0.1-1.6-0.2c-0.5-0.1-1-0.2-1.6-0.3
		c0.4-1.1,0.9-2.3,1.5-3.5S53,104.8,53.7,103.6z"/>
	<path class="st1" d="M75.9,108.5c0.4-1.1,0.9-2.1,1.4-3.2c0.5-1.1,1.1-2.2,1.6-3.3c0.6-1.1,1.2-2.2,1.8-3.2c0.6-1,1.2-2,1.9-2.8
		c0.6-0.9,1.3-1.6,1.9-2.3c0.6-0.6,1.2-1.1,1.8-1.5c0.6-0.3,1.1-0.5,1.6-0.5c0.2,0,0.3,0.1,0.5,0.1c0.1,0.1,0.3,0.2,0.4,0.3
		c0.1,0.1,0.2,0.3,0.3,0.4c0.1,0.2,0.2,0.4,0.3,0.6c0.4-0.3,0.7-0.6,1.1-0.9c0.4-0.3,0.7-0.6,1.1-0.9c0.3-0.3,0.6-0.7,0.9-1
		c0.3-0.4,0.5-0.7,0.6-1.2c0.1-0.2,0.1-0.5,0-0.8c-0.1-0.3-0.2-0.5-0.3-0.7c-0.2-0.2-0.3-0.4-0.6-0.5c-0.2-0.1-0.5-0.2-0.7-0.2
		c-0.4,0-0.8,0.1-1.3,0.3c-0.5,0.2-1,0.5-1.5,0.9c-0.5,0.4-1.1,0.9-1.6,1.4c-0.6,0.5-1.1,1.1-1.7,1.7c-0.6,0.6-1.2,1.3-1.7,1.9
		c-0.6,0.7-1.1,1.4-1.7,2c-0.5,0.7-1,1.3-1.5,2c-0.5,0.6-0.9,1.2-1.3,1.8c0.2-0.8,0.5-1.5,0.7-2.3c0.3-0.8,0.5-1.5,0.8-2.3
		c0.3-0.8,0.5-1.5,0.7-2.3c0.2-0.8,0.4-1.5,0.5-2.3c0-0.3,0.1-0.6,0.1-0.9c0-0.3,0-0.7,0-1c0-0.3-0.1-0.5-0.3-0.7
		c-0.1-0.2-0.3-0.3-0.6-0.3c-0.4,0-0.8,0.1-1.2,0.3c-0.4,0.2-0.8,0.4-1.3,0.6c-0.4,0.3-0.8,0.5-1.3,0.9c-0.4,0.3-0.8,0.6-1.2,1
		c-0.4,0.3-0.8,0.7-1.1,1c-0.3,0.3-0.7,0.6-0.9,0.9c-0.3,0.3-0.5,0.5-0.7,0.7c-0.2,0.2-0.3,0.3-0.4,0.4l0.4,0.5
		c0.3-0.2,0.5-0.3,0.7-0.5c0.2-0.2,0.5-0.4,0.7-0.6c0.2-0.2,0.5-0.4,0.8-0.5c0.3-0.1,0.5-0.2,0.8-0.3c0.1,0,0.2,0,0.3,0.1
		c0.1,0.1,0.2,0.2,0.2,0.4c0,0.2,0.1,0.3,0.1,0.5c0,0.2,0,0.3-0.1,0.5c-0.5,1.7-1,3.5-1.6,5.2c-0.5,1.7-1.1,3.5-1.7,5.2
		c-0.6,1.7-1.2,3.5-1.7,5.2c-0.6,1.7-1.2,3.5-1.7,5.2l4.4-2.1C75.1,110.5,75.4,109.5,75.9,108.5z"/>
	<path class="st1" d="M96.3,102.5c0.5-1.6,1.1-3.1,1.7-4.7c0.6-1.5,1.2-3.1,1.7-4.6c0.6-1.5,1.1-3.1,1.5-4.7c0-0.2,0.1-0.4,0-0.6
		s-0.1-0.4-0.2-0.6s-0.2-0.3-0.3-0.4c-0.1-0.1-0.3-0.2-0.5-0.2c-0.6,0-1.3,0.3-2,0.7c-0.7,0.4-1.4,0.9-2,1.4
		c-0.7,0.6-1.4,1.1-2.1,1.8c-0.7,0.6-1.4,1.1-2.1,1.6l0.7,0.6c0.3-0.2,0.5-0.4,0.7-0.6c0.2-0.2,0.5-0.4,0.7-0.6
		c0.2-0.2,0.5-0.4,0.7-0.5c0.2-0.2,0.5-0.3,0.8-0.3c0.2,0,0.3,0,0.3,0.1c0.1,0.1,0.1,0.2,0.1,0.4c0,0.2,0,0.3,0,0.5
		c0,0.2-0.1,0.4-0.1,0.5c-0.5,1.6-1,3.2-1.6,4.7c-0.6,1.6-1.2,3.1-1.8,4.7c-0.6,1.6-1.2,3.1-1.7,4.7c-0.6,1.6-1,3.2-1.5,4.7
		c-0.1,0.2-0.1,0.5-0.1,0.7c0,0.3,0,0.5,0.1,0.7c0.1,0.2,0.2,0.4,0.3,0.6c0.1,0.2,0.3,0.2,0.5,0.2c0.6,0,1.2-0.2,1.9-0.6
		c0.7-0.4,1.4-0.9,2.1-1.5c0.7-0.6,1.4-1.3,2.2-2c0.7-0.7,1.4-1.4,2-2.2c-0.1-0.1-0.1-0.2-0.2-0.3c-0.1-0.1-0.1-0.2-0.2-0.3
		c-0.2,0.2-0.5,0.4-0.7,0.6c-0.2,0.2-0.5,0.4-0.7,0.6c-0.2,0.2-0.5,0.4-0.7,0.5s-0.5,0.3-0.8,0.3c-0.1,0-0.2,0-0.3-0.1
		c-0.1-0.1-0.1-0.2-0.1-0.4s0-0.3,0-0.5c0-0.2,0-0.3,0.1-0.5C95.2,105.6,95.7,104,96.3,102.5z"/>
	<path class="st1" d="M101.8,81.6c0.4-0.2,0.8-0.5,1.1-0.8c0.3-0.3,0.6-0.7,0.9-1.1c0.2-0.4,0.4-0.8,0.6-1.2c0.1-0.3,0.1-0.5,0-0.8
		c-0.1-0.2-0.2-0.5-0.4-0.7c-0.2-0.2-0.4-0.4-0.7-0.5s-0.5-0.2-0.8-0.2c-0.5,0-0.9,0.1-1.3,0.3c-0.4,0.2-0.8,0.5-1.1,0.8
		c-0.3,0.3-0.6,0.7-0.7,1.1c-0.2,0.4-0.3,0.9-0.3,1.3c-0.1,0.7,0,1.3,0.3,1.6c0.3,0.3,0.7,0.5,1.2,0.5
		C101,81.9,101.4,81.8,101.8,81.6z"/>
	<path class="st1" d="M136,122.4c0.7-1,1.3-2,1.8-3c0.5-1,1-2,1.5-3.1c0.5-1.1,0.9-2.3,1.3-3.4c0.4-1.2,0.8-2.4,1.2-3.6
		c0.4-1.2,0.8-2.4,1.1-3.7c0.4-1.2,0.7-2.5,1.1-3.7c0.4-1.3,0.8-2.5,1.2-3.8c0.4-1.3,0.8-2.5,1.3-3.8c0.5-1.3,1-2.5,1.5-3.8
		s1.1-2.5,1.8-3.7h-5.3c-1.2,0-2.4,0.1-3.5,0.4c-1.2,0.3-2.3,0.7-3.5,1.2c-1.1,0.5-2.2,1.2-3.3,1.9c-1.1,0.8-2.1,1.6-3.1,2.6
		c-1,1-1.9,2.1-2.7,3.3c-0.8,1.2-1.6,2.5-2.3,3.8c-0.7,1.4-1.3,2.8-1.8,4.4c-0.3,0.8-0.5,1.7-0.7,2.6c-0.2,0.2-0.5,0.4-0.7,0.6
		c-0.2,0.2-0.5,0.4-0.7,0.6c-0.2,0.2-0.5,0.4-0.7,0.5c-0.2,0.2-0.5,0.3-0.8,0.3c-0.1,0-0.2,0-0.3-0.1c0-0.1-0.1-0.2-0.1-0.4
		c0-0.2,0-0.3,0-0.5c0-0.2,0.1-0.3,0.1-0.5c0.3-1.6,0.7-3.1,1.2-4.7c0.5-1.6,1.1-3.1,1.7-4.7c0.6-1.6,1.2-3.1,1.8-4.7
		c0.6-1.6,1.1-3.1,1.5-4.7c0.1-0.2,0.1-0.4,0-0.7c0-0.2-0.1-0.5-0.2-0.7c-0.1-0.2-0.2-0.4-0.4-0.5c-0.2-0.1-0.3-0.2-0.5-0.2
		c-0.5,0-1,0.1-1.6,0.4c-0.6,0.2-1.3,0.6-2,1c-0.7,0.4-1.5,0.9-2.3,1.5c-0.8,0.6-1.6,1.2-2.5,1.9c-0.8,0.7-1.7,1.4-2.5,2.2
		c-0.9,0.8-1.7,1.5-2.5,2.3c-0.8,0.8-1.6,1.5-2.4,2.3c-0.8,0.8-1.5,1.5-2.1,2.2c0.4-1,0.8-1.9,1.1-2.9c0.3-1,0.6-1.9,0.9-2.9
		c0.3-1,0.5-1.9,0.8-2.9c0.3-1,0.5-1.9,0.9-2.9c0.1-0.3,0.1-0.6,0.1-0.8c0-0.3,0-0.5-0.1-0.7c-0.1-0.2-0.2-0.4-0.4-0.5
		c-0.2-0.1-0.3-0.2-0.5-0.2c-0.3,0-0.6,0.1-0.9,0.2c-0.3,0.1-0.6,0.3-1,0.4c-0.3,0.2-0.7,0.4-1,0.7c-0.4,0.3-0.7,0.5-1.1,0.8
		c-0.4,0.3-0.7,0.6-1.1,0.9c-0.4,0.3-0.7,0.6-1.1,0.9c-0.4,0.3-0.7,0.6-1.1,0.9c-0.3,0.3-0.7,0.6-1,0.8l0.5,0.6
		c0.3-0.2,0.5-0.4,0.8-0.6c0.2-0.2,0.5-0.4,0.7-0.6c0.2-0.2,0.5-0.4,0.8-0.5c0.3-0.2,0.5-0.3,0.8-0.3c0.1,0,0.2,0,0.3,0.1
		c0.1,0.1,0.2,0.2,0.2,0.3c0,0.1,0.1,0.3,0.1,0.4c0,0.2,0,0.3,0,0.4c-0.5,1.8-1,3.5-1.5,5.3c-0.5,1.7-1.1,3.5-1.6,5.2
		c-0.6,1.7-1.2,3.5-1.8,5.3c-0.6,1.8-1.3,3.6-1.9,5.4l4.7-2.2c0.2-1.1,0.6-2.2,1.1-3.4c0.5-1.2,1.2-2.4,1.9-3.6s1.5-2.4,2.4-3.5
		c0.9-1.2,1.8-2.2,2.7-3.3c0.9-1,1.8-2,2.8-2.9c0.9-0.9,1.8-1.6,2.5-2.3s1.5-1.1,2.1-1.5c0.6-0.3,1.1-0.5,1.4-0.5
		c0.1,0,0.2,0.1,0.3,0.1c0.1,0.1,0.2,0.2,0.2,0.3s0.1,0.3,0.1,0.4c0,0.1,0,0.3,0,0.4c-0.5,1.6-1,3.2-1.5,4.7
		c-0.6,1.6-1.2,3.1-1.7,4.7c-0.6,1.6-1.2,3.1-1.7,4.7c-0.5,1.6-1,3.2-1.4,4.8c-0.1,0.2-0.1,0.5-0.1,0.9c0,0.3,0.1,0.6,0.2,0.9
		c0.1,0.3,0.2,0.5,0.4,0.7c0.2,0.2,0.4,0.2,0.6,0.1c0.7-0.2,1.4-0.6,2-1c0.6-0.4,1.3-0.9,1.9-1.4c0.6-0.5,1.2-1,1.8-1.6
		c0.3-0.3,0.7-0.6,1-0.8c-0.1,0.3-0.1,0.6-0.2,1c-0.1,0.4-0.1,0.8-0.1,1.2c0,0.5,0,0.9,0,1.3c0.1,0.4,0.2,0.8,0.4,1
		c0.2,0.3,0.5,0.4,0.8,0.4c0.4,0,0.8-0.1,1.4-0.3c0.5-0.2,1.1-0.5,1.8-0.9c0.7-0.4,1.4-0.9,2.1-1.4c0.8-0.5,1.5-1.2,2.3-1.8
		c0.8-0.7,1.6-1.4,2.4-2.1c0.8-0.8,1.6-1.5,2.4-2.3c0.8-0.8,1.6-1.6,2.3-2.4c0.8-0.8,1.5-1.6,2.1-2.4c-0.5,1.8-1.1,3.6-1.6,5.4
		c-0.6,1.8-1.1,3.6-1.7,5.4c-0.6,1.8-1.2,3.5-1.8,5.3c-0.6,1.7-1.3,3.3-2,4.8c-0.5,1-0.9,1.9-1.5,2.8h3
		C135.6,122.9,135.8,122.7,136,122.4z M139.9,98.5c-0.8,1.1-1.6,2.2-2.5,3.3c-0.9,1.1-1.7,2.1-2.6,3c-0.9,0.9-1.7,1.8-2.5,2.5
		c-0.8,0.7-1.6,1.3-2.3,1.7c-0.7,0.4-1.3,0.7-1.9,0.8c-0.2,0-0.4-0.1-0.5-0.2c-0.1-0.2-0.2-0.4-0.2-0.6c0-0.3,0-0.5,0-0.8
		c0-0.3,0.1-0.5,0.1-0.7c0.2-0.9,0.5-1.8,0.7-2.7c0.3-1,0.6-2,0.9-3c0.3-1,0.7-2,1.1-3c0.4-1,0.9-1.9,1.4-2.8
		c0.5-0.9,1.1-1.7,1.6-2.5c0.6-0.8,1.2-1.4,1.9-2c0.7-0.6,1.4-1,2.2-1.3c0.8-0.3,1.6-0.5,2.5-0.5h4.8c-0.2,0.8-0.6,1.6-1,2.6
		c-0.5,1-1,2-1.7,3.1S140.7,97.4,139.9,98.5z"/>
	<path class="st1" d="M131.6,124.6c-0.8,1.3-1.7,2.4-2.7,3.3c-1,0.9-2,1.7-3.1,2.2s-2.3,0.8-3.6,0.8c-0.6,0-1.3-0.1-1.9-0.2
		s-1.2-0.3-1.8-0.5c-0.6-0.2-1.2-0.4-1.8-0.6c-0.6-0.2-1.2-0.4-1.8-0.6c-0.1,0.2-0.2,0.3-0.3,0.5s-0.2,0.3-0.4,0.5
		c-0.1,0.2-0.2,0.3-0.3,0.5c-0.1,0.2-0.1,0.4-0.2,0.5c0,0.4,0.1,0.8,0.3,1.2c0.2,0.3,0.6,0.6,1,0.9c0.4,0.2,0.8,0.4,1.3,0.5
		c0.5,0.1,0.9,0.2,1.4,0.1c1.3-0.1,2.6-0.3,3.8-0.6c1.2-0.3,2.4-0.7,3.5-1.3c1.1-0.5,2.2-1.1,3.2-1.8c1-0.7,2-1.4,2.8-2.3
		c0.8-0.7,1.6-1.5,2.3-2.4v-1c0-0.6-0.5-0.9-1.4-0.8C132,124,131.8,124.4,131.6,124.6z"/>
	<path class="st1" d="M161.5,65.9C161.8,66,161.6,65.5,161.5,65.9L161.5,65.9z"/>
	<path class="st1" d="M159.6,70.2C159,70.6,159.9,69.9,159.6,70.2L159.6,70.2z"/>
	<path class="st1" d="M164.8,62L164.8,62C164.8,62,164.8,62,164.8,62C164.8,62,164.8,62,164.8,62z"/>
	<path class="st1" d="M164.8,61.9C164.8,61.9,164.8,61.9,164.8,61.9C164.8,62,164.8,62,164.8,61.9C164.8,62,164.8,62,164.8,61.9
		C164.8,62,164.8,62,164.8,61.9z"/>
	<path class="st1" d="M161.1,64.6c0.7-0.8,1.3-1.6,1.9-2.4C162,62.6,161,63.7,161.1,64.6z"/>
	<path class="st1" d="M161.7,65.2c0.4-0.3,0.4-0.8,0.6-1.3C161.6,64.5,161.5,64.8,161.7,65.2z"/>
	<path class="st1" d="M150.6,80.3c-0.2,0.2-0.4,0.3-0.5,0.5c0.3-0.1,0.6-0.2,0.9-0.3C150.9,80.4,150.7,80.3,150.6,80.3z"/>
	<path class="st1" d="M161.8,68.1c-0.3,0.2,0.5,3,0.7,3.5c1.1-1.2,1.4-3.6,1.7-5.2c-0.9-0.1-1.7-0.4-2.6-0.4
		c0.1-0.4-0.5-0.4-0.7-0.7c0.2,1.6,1.5,2.6,1.8,4.1C162.5,69.4,161.9,68.3,161.8,68.1z"/>
	<path class="st1" d="M163,56.6c0.1,2.2,1.9,1.7,3.2,1.1c0.7-0.3,1.3-1,2.1-1.3c0.4-0.2,1.7-0.5,1.8-0.9c-0.1-0.1-0.1-0.2-0.3-0.2
		c1.3-0.4,2.5-0.9,3.8-1.3c0.9-0.3,0.8-1.6,1.1-2.5c0.4-1.3,0.8-2.5,1.1-3.8c0.2-1,0.8-2.3,0.3-3.4c-1.1,2.5-2.5,4.5-1.8,3.2
		c0.3-0.7,2-3.4,1.3-3.8c-0.6-0.3-1.2-0.4-1.8-0.4c-0.8,0-0.7,0.8-1,1.6c-0.4,1.3-0.4,0.4,0.1-1.3c-0.6-0.2-1-0.6-1.2,0.2
		c-0.2,0.7-0.4,1.4-0.6,2c-0.4,1.1,0-0.5,0.4-2.5c-1.4,0-2.3-0.1-3.5,0.8c-0.9,0.7-1.6,2.3-2.2,3.3c-0.7,1.1-1.4,2.2-1.8,3.4
		c-0.9,2.3-0.8,4.9,0.1,7.2C163.4,58.1,163.1,56.9,163,56.6z"/>
	<path class="st1" d="M156,48c-0.7-1.1-1.3-1.8-2.5-1c-1.1,0.8-0.8,1.8-0.6,2.1c-0.4,2.8,1.3,5.9,2.8,8c1,1.4,2,1.6,3.5,2.1
		c1.5,0.5,2.8-0.1,4.3-0.5c-0.3-0.6-0.8-1.3-0.9-2c-0.4-2.6-0.4-4.9-2.2-6.9c-1.4-1.6-2.8-4.9-5.2-3.3C155.5,47,156.6,48.9,156,48z"
		/>
	<path class="st1" d="M164.8,65.1c0,0.2,0.1,0.4,0.1,0.6c1.1-0.2,1.6-1.5,2.1-2.4c0.6-1.1,1.2-2.1,2-3.1c1.7-1.9,3.7-3.5,5.2-5.5
		c-1.6,0.3-2.8,0.7-4.3,1.4c-0.8,0.4-3,1-3.4,1.9c-0.5,1.4-1.8,2.3-2.6,3.4c-0.9,1.2-1.4,2.6-2,3.9c0.7,0.4,0.7,0.2,1.1-0.6
		c0.2-0.4,0.5-0.9,0.8-1.3c0.1-0.1,0.6-1,1-1.5c0.2-0.2,0.3-0.4,0.3-0.3c-0.9,0.9-1.6,2.8-2.2,4c1,0.4,1.6-1.9,2-2.7
		c0.7-1.3,1.2-1.6,0.7-0.6c-0.6,1.1-1.2,2.3-1.7,3.4C164.4,66,164.6,65.6,164.8,65.1z"/>
	<path class="st1" d="M154.7,56.7C155.2,57.2,153.8,55.8,154.7,56.7L154.7,56.7z"/>
	<path class="st1" d="M146.8,52.8c-0.2,0.5,1.9,1.7,2.2,1.9c1.1,0.6,1.2,1.7,1.8,2.7c0.5,0.9,1.3,0.7,2.1,1.3
		c1.8,1.3,4.2,1.8,6.3,1.3c0-0.4-2.5-1-2.9-1.3c-0.6-0.4-1.1-1.4-1.6-1.9c-1.8-1.8-4-3.1-5.8-4.9C148.1,51,147.2,51.8,146.8,52.8z"
		/>
	<path class="st1" d="M161.8,62.5c0.6-0.7,1.4-0.8,2-1.5c0.4-0.6,1.7-1.8,1.7-2.6c-0.6,0.1-1.2,0.3-1.5,0.8
		c-0.7,0.2-1.4,0.3-2.1,0.5c-1.3,0.4-3,1.2-4.3,0.9c-0.1,0-1.5-0.4,0,0c-1-0.3-2-0.5-3-0.7c-0.7-0.2-1.5-0.7-2.2-0.6
		c0.7,1.3,1.6,2.5,3,2.8c0.8,0.1,1.5,0.2,2.1,0.6c0.6,0.3,1,0.5,1.7,0.4c-0.2-0.4,0.2,0,0.7,0.6C160.8,64.5,161.2,63.2,161.8,62.5z"
		/>
	<path class="st1" d="M137.7,73.6c1.1-0.1,2.4-0.4,3.5-0.3c-0.1,0.3-3,0.4-3.4,0.5c0.2,0.2,0.4,0.9,0.8,0.8c0.7-0.1,1.3-0.3,1.9-0.5
		c0.1,0.2-1.3,0.5-1.5,0.6c-0.7,0.3,0.4,0.8,0.8,1c1.1,0.6,2.3,0.7,3.5,0.1c1.1-0.6,2.1-1.5,3.1-2.2c0.4-0.2,0.5-0.6,0.8-0.9
		c0.7-0.7-0.4-0.6-0.7-1c0.5,0.1,0.7,0.2,1.1-0.2c0.1-0.2,0.1-0.3,0-0.5c-0.4-0.4-1-0.7-1.6-0.9c0.1,0,0.1,0-0.1-0.1
		c-1.7-0.5-4-2.3-4.5-4c-0.1,0.6-0.2,0-0.8,0.1c-0.3,0.1-0.5,0.2-0.8,0.3c-0.6,0.3-1,0.8-1.3,1.3c-0.2,0.4-0.4,0.7,0.1,0.9
		c0.3,0.1,0.7,0.2,1,0.3c0.4,0.1,0.9,0.3,1.2,0.6c-0.9-0.3-1.8-0.6-2.7-0.9c-0.1,0.3-0.1,0.6-0.2,0.9c0.3,0.1,0.8,0.1,1,0.4
		c-0.3-0.1-0.7-0.1-1-0.2C137.8,71.3,137.5,72.4,137.7,73.6z"/>
	<path class="st1" d="M150,77.3c0.2,0.8,0.7,1.7,0.5,2.6c1.4,0-0.2-2.1,0.4-2.2c0.1,0.6,0.3,1.2,0.5,1.8c0.4,0,0.7-0.5,0.8-0.8
		c0.5-0.8,0.9-1.6,0.4-2.5c-0.5-1-1.7-1.7-2.5-2.3c-0.3-0.2-0.9,0-1.2,0c-0.2,0.4-0.4,0.7-0.7,1.1c-0.2-0.1,0.4-1,0.5-1.2
		c-0.2-0.2-0.7-0.9-1.1-0.6c-0.8,0.5-1.6,0.9-2.1,1.6c0.1-0.2,0.3-0.4,0,0c-0.4,0.6-1.2,1-1.7,1.5c-0.5,0.6-1.1,1.3-1.5,1.9
		c-0.5,1,1.1,2.8,1.8,3.5c0.6-0.6,0.8-1.5,1.2-2.2c-0.2,0.6-0.4,1.2-0.7,1.8c-0.2,0.3-0.5,0.5-0.1,0.7c0.2,0.1,0.3,0.2,0.4,0.3
		c0.4-0.7,0.8-1.3,1.1-1.9c-0.1,0.7-0.6,1.4-1,2c0.8,0.3,1.7,0.8,2.5,0.6c0.7-0.2,1.2-1,1.6-1.5c0.5-0.6,1.2-1.2,1.2-2
		C150.5,78.7,150.1,78,150,77.3z"/>
	<path class="st1" d="M159.3,67.4c-0.4-0.6-1.9,0.1-2.5,0.3c0.7-0.4,1.4-0.6,2.1-0.7c-0.4-0.5-0.9-0.8-1.4-1.3
		c-0.2-0.2-0.4-0.5-0.7-0.5c-0.2,0-0.6,0.3-0.7,0.1c0.2-0.1,0.4-0.2,0.6-0.3c-0.5-0.4-0.5-0.4-1.1-0.1c-0.3,0.1-0.6,0.3-1,0.5
		c0.3-0.4,0.9-0.6,1.4-0.9c-0.6-1.1-2.5-1.1-3.5-0.6c-1,0.5-2.1,1.9-2.4,2.9c-0.3,0.9-0.2,3,0.2,3.8c0.3,0.7,2.1-0.3,2.5-0.4
		c-0.5,0.5-1.3,0.6-1.9,0.9c0.4,0.8,1.2,0.3,1.8-0.1c0,0.4,0.8,0,1.2,0c0.7,0,1.5,0.2,2.2,0.3c0.7,0.2,1.2,0.6,1.9,0.2
		c0.5-0.4,1.1-0.8,1.6-1.2C160.3,69.5,159.7,68.1,159.3,67.4z"/>
	<path class="st1" d="M158.6,76.1c-0.1-0.6-0.4-0.6-0.7-1.1c0.1,0.1,0.3,0.1,0.4,0.2c0.3-0.4-0.1-2.3-0.4-2.7
		c-0.5-0.7-1.4-0.9-2.2-1.1c-1-0.2-1.9-0.4-2.8-0.1c-0.5,0.2-1.8,0.4-1.8,1c0.7,0.1,1.4,0.4,2,0.8c-0.6-0.2-1.6-0.7-2.3-0.6
		c-0.7,0.1,0.8,0.8,0.9,0.9c-0.1,0.2-0.8-0.3-1-0.3c-0.6-0.3-0.6,0.2-0.2,0.5c0.7,0.6,1.6,1.1,2.1,1.8c0.9,1.4,0.4,3.3-1.1,4.2
		c-0.2,0.1-0.4,0.2-0.6,0.3c0.6,0.7,1.5,0.8,2.4,0.9c1.2,0.2,0.4-0.3,0.7-1c0.1,0.4,0.1,1,0.7,1c0.3-0.1,0.7-0.2,1-0.3
		c0.8-0.3,1.4-0.7,2-1.2c0.4-0.4,1.4-1.2,0.7-1.6c-0.2-0.2-1.4-1-1.3-1.1c0.5,0.4,1.1,0.8,1.7,1.2C158.8,77.2,158.7,76.7,158.6,76.1
		z"/>
	<path class="st1" d="M142.2,64.7c-1.8,1.4,1.1,3.8,2.3,4.6c0.8,0.6,1.8,0.8,2.7,1.3c0.4,0.2,0.7,0.4,1.2,0.1c0.3-0.2-0.1-1-0.2-1.3
		c0.2,0.4,0.4,0.7,0.5,1.1c0.4,0,1.2-0.3,1.2-0.7c0.1-0.5-0.1-1.2-0.1-1.8c-0.1-0.8,0.1-1.3,0.2-2.1c0,0,0,0,0,0
		c0.2-1.7,0.5-4.3-2.2-4c0.4,0.4,0.5,1,0.3,1.5c-0.1-0.5-0.2-1.6-1-1.5c-0.8,0.1-1.6,0.3-2.4,0.6c-0.8,0.4-1.4,1-2.1,1.5
		c0.4,0.7,1.1,1.4,1.5,2.1c-0.6-0.6-1.2-1.2-1.7-1.9c-0.7,0.5,0.4,1.4,0.7,1.9C142.9,65.7,142.6,65.2,142.2,64.7z"/>
	<path class="st1" d="M150.3,72.4c0.2-0.3,0.7-0.1,0.5-0.6c-0.2-0.3-0.4-0.6-0.7-0.9c-0.2,0.1-0.4,0.2-0.7,0.2c-0.3,0-0.7-0.1-1,0
		c-0.3,0.1-0.2,0.6-0.2,0.8c0,0.6-0.1,0.7,0.5,1C149.5,73.4,149.9,73.4,150.3,72.4C150.2,72.6,150.3,72.5,150.3,72.4z"/>
	<path class="st1" d="M145.3,74.6c-0.5,0.2-0.7,0.4-1,0.8C144.7,75.2,145.1,75,145.3,74.6z"/>
</g>
<path class="st2" d="M81.5,154.1c-0.3,0.3-0.7,0.5-1,0.7h0.3C81,154.6,81.2,154.4,81.5,154.1z"/>
<g>
	<path class="st2" d="M182.1,76.6c0,0-0.6,0-0.7,0.1c-2.1,0.4-4.3,0.6-6,2.5c-6.6,7.3-9.8,16.4-11.9,25.8c-0.2,0.7-0.3,1.4-0.4,2.1
		c0-0.3,0-0.5,0-0.8c0.1-5.1,1-10.9,1.4-16c0.3-3.5,0.6-7,1.2-10.4c0.4-2.5,0.7-5,1.1-7.5c0.4-2.3,0.8-4.6,1.4-6.8
		c0.1-0.4,0.3-1.1,0.3-1.1s-0.5,0.2-0.7,0.3c-0.7,0.5-1.1,0.7-1.6,1.3c-1.4,1.7-2.1,4-2.7,6.4c-0.5,2.2-0.9,4.5-1.2,6.9
		c-0.3,2.2-0.5,4.4-0.8,6.7c-0.4,4.5-0.7,9-0.9,13.5c-0.1,1.1-0.1,2.3-0.1,3.4c0,2.5,0,5,0,7.6c-0.7-4.6-1.2-9.2-2-13.7
		c-0.5-3.3-0.9-6.6-2.4-9.7c-0.7-1.5-0.8-2.1-1.6-3.8c-0.2-0.5-0.3-0.8-0.4-0.8c0.2,1.1,0.3,2.2,0.7,3.2c1,3.2,1.2,6.4,1.3,9.7
		c0.1,4.4,0.2,8.8,0.4,13.1c-0.2-3.4-2.4-6-4.2-7c-1.3-0.7-4.1-1.7-6.8-0.2c2.3,1,5,0.6,7,3c2.3,2.9,1.7,4.7,4.6,8.8
		c0,0,0,0.1,0,0.1h7c1.4-5.1,3.1-10.1,5.2-15.1c3.2-7.5,6.4-15.1,12.1-20.9C181.5,77.1,182.1,76.6,182.1,76.6z"/>
	<path class="st2" d="M15.8,142.4c2.3,0,3.5,0.2,3.5,0.7c0,5.5,0,8.6,0.1,9.3c-1.8,1.1-3.6,1.6-5.5,1.6c-3.8,0-6.6-2.1-8.2-6.4
		c-1.1-2.8-1.6-6.2-1.6-10c0-7.1,2.2-11.6,6.6-13.7c1.2-0.5,2.5-0.8,3.7-0.8c1.5,0,2.8,0.4,4,1.2c1.2,0.8,1.9,1.2,2.2,1.2
		c0.9,0,1.3-0.3,1.3-1c0-0.7-1.1-1.2-3.4-1.7c-1.7-0.4-3.2-0.5-4.6-0.5c-1.5,0-2.9,0.2-4.1,0.7c-3.3,1.3-5.8,3.6-7.5,6.9
		c-1.5,2.8-2.2,5.8-2.2,9c0,3.6,0.9,7,2.8,10.1c2.4,4.1,5.6,6.1,9.8,6.1c1.3,0,3.1-0.3,5.4-1c1.7-0.5,3.5-1,5.2-1.5
		c-0.4-0.4-0.6-0.8-0.6-1.3v-9h1.7v-0.5h-8.5V142.4z"/>
	<path class="st2" d="M46.6,140.8c-0.8-4.8-1.2-10.5-1.2-17h1.7v-0.5h-2.4h-3h-9.3v0.5c0.8-0.1,1.3,0.2,1.6,0.7
		c0.1,0.2,0.1,0.7,0.1,1.5c0,1.6,0,3.1-0.1,4.5c0,0.6,0,1.2-0.1,1.8c-0.1,3.9-0.4,7-0.9,9.3c-1.3,6.9-3.9,11.5-7.8,13.7
		c4.8,0,8.1-3.6,10.1-10.7h9.4c0.8,3.1,1.6,5.3,2.4,6.6c1.5,2.4,3.8,3.8,6.7,4C50.5,154.1,48,149.3,46.6,140.8z M35.8,143.9
		c0.5-2.1,0.9-5.1,1.2-8.9c0.1-1.5,0.2-3,0.3-4.4c0-0.6,0.1-1.2,0.1-1.8c0.1-1.6,0.1-3.1,0.1-4.5c0,0,0-0.1-0.1-0.2
		c0-0.1,0-0.2,0-0.2h4h1.9c0,0.3-0.1,0.7-0.1,1.2c0,1.4,0,3.4,0.1,6.1c0.1,4.9,0.6,9.2,1.4,12.7H35.8z"/>
	<path class="st2" d="M76.4,156.6c-1.7,0-3-1.3-4-3.8c-0.7-2.5-1.4-5.1-2.1-7.6c-0.9-2.9-1.9-4.7-3-5.2c-0.4-0.1-0.8-0.2-1-0.3
		c0.4-0.1,0.7-0.1,1-0.1c5-1.2,7.5-4.5,7.5-9.7c0-1.7-0.4-3.2-1.1-4.7c-1-1.9-2.4-2.9-4.2-2.9c-1.3,0-2.7,0.5-4.1,1.6
		c-1.2,0.9-2.1,1.9-2.7,3c-0.4,0.8-0.6,1.3-0.8,1.7c0.1-1.2,0.1-3.1,0.1-5.9c-1.2,0.8-2.8,1.3-4.9,1.6v0.5c1.1,0,1.6,0.3,1.6,1v27.6
		c0,0.6-0.5,0.9-1.6,0.9v0.5h6.9v-0.5h-2v-22.8c0-1.1,0.6-2.7,1.8-4.7c1.3-2.2,2.6-3.3,3.9-3.3c0.7,0,1.4,0.4,2,1.2
		c1.4,1.7,2.1,4.1,2.1,6.9c0,1.2-0.2,2.3-0.5,3.2c-0.5,1.6-1.5,2.8-3,3.4c-1,0.5-2.7,0.9-5.3,1.3c1.1,0.3,2,1.4,2.9,3.2
		c0.6,1.2,1.2,3.3,1.9,6c0.7,2.7,1.4,4.6,2,6c1,1.9,2.5,2.8,4.5,2.8c2.4,0,4.6-0.9,6.6-2.8h-0.3C78.9,156,77.5,156.6,76.4,156.6z"/>
	<path class="st2" d="M99,125.8c-2.5-1.7-6.8-2.6-13-2.6h-5.8v0.5c0.3,0,0.7,0,1.1,0.2c0.4,0.1,0.6,0.3,0.6,0.6v29
		c0,0.6-0.5,0.9-1.6,0.9h-0.1v0.5h0.3c0.3-0.2,0.7-0.5,1-0.7c-0.2,0.3-0.5,0.5-0.7,0.7h6.7c5.6,0,9.9-1.7,13-5.1
		c2.6-2.9,3.9-6.6,3.9-11.1c0-1.2-0.1-2.3-0.3-3.4C103.2,130.7,101.5,127.5,99,125.8z M87.4,154H85l0.2-1.3c0-18.5,0-28.1-0.1-28.7
		c0.9,0,1.5,0,2.1,0c4.5,0,7.9,1.2,10,3.7c1.6,1.8,2.6,4.6,3,8.4c0.2,1.4,0.2,2.7,0.2,4C100.4,149.3,96.1,154,87.4,154z"/>
	<path class="st2" d="M126.3,152.7c-0.2,1.1-0.9,1.6-2,1.6h-11l0.1-0.7v-15.5h8.4v2.7h0.7v-6.5h-0.7c0,1,0,1.6-0.1,1.9
		c-0.2,0.8-0.8,1.2-1.6,1.2h-6.6c0-8.8,0-13.3-0.1-13.5h10.7c0.8,0,1.3,0.2,1.5,0.6c0.1,0.2,0.1,0.7,0.2,1.4l0.1,1.5h0.7l-0.4-5
		h-0.7l0.1,0.8h-17v0.5c1.1,0,1.6,0.3,1.6,0.7v29.1c0,0.6-0.5,0.9-1.6,0.9v0.5h17.4l-0.1,0.8h0.8l0.9-5h-0.8L126.3,152.7z"/>
	<path class="st2" d="M151.3,123.8c0.4-0.1,0.7,0,1.1,0.2c0.4,0.2,0.5,0.4,0.5,0.7c0,15.1,0,23,0.1,23.7c-3-6.9-8.7-15.3-17.3-25.1
		h-0.3h-3H132v0.5c0.1,0,0.1,0,0.2,0c0.9,0,1.4,0.2,1.4,0.8v1v27.9c0,0.6-0.5,0.9-1.5,0.9H132v0.5h4.6v-0.5h-1.6
		c0-17.2,0-26.1-0.1-26.6c2.8,3.6,4.9,6.4,6.3,8.2c4.1,5.7,8.3,12,12.4,19h0.9v-31.1h1.6v-0.5h-4.7V123.8z"/>
	<path class="st2" d="M191.8,123.1c1.4,0,2.7,0.4,4,1.2s1.9,1.2,2.2,1.2c0.8,0,1.2-0.3,1.2-1c0-0.7-1.1-1.3-3.3-1.7
		c-1.7-0.4-3.2-0.5-4.6-0.5c-4.5,0-8.1,1.9-10.7,5.7c-2.1,3-3.2,6.5-3.2,10.2c0,3.9,0.9,7.5,2.6,10.6c2.3,4.2,5.6,6.3,10,6.3
		c1.3,0,2.9-0.3,4.8-1c1.7-0.6,3.1-1.2,4.3-2l-0.5-0.5c-0.9,0.6-2,1.1-3.4,1.6c-1.4,0.4-2.7,0.7-3.8,0.7c-3.8,0-6.6-2.1-8.2-6.2
		c-1.1-2.7-1.6-6-1.6-9.8c0-3.7,0.6-6.9,1.8-9.4C184.9,125,187.8,123.1,191.8,123.1z"/>
	<path class="st2" d="M218.6,152.7c-0.2,1.1-0.9,1.6-1.9,1.6H209l0.2-1.3l0.1-29.3h1.7v-0.5h-6.7v0.5c1.1,0,1.6,0.2,1.6,0.7v29.1
		c0,0.6-0.5,0.9-1.6,0.9v0.5h14l-0.1,0.8h0.8l0.9-5H219L218.6,152.7z"/>
	<path class="st2" d="M240.8,123.8c1.1,0,1.6,0.3,1.6,0.9v20.6c0,1.3-0.9,3-2.7,5.3c-1.9,2.4-3.7,3.6-5.2,3.6
		c-1.9,0-3.2-1.6-3.9-4.8c-0.5-1.9-0.7-4-0.7-6.5v-11.6v-1.6v-5.9h1.8v-0.5h-6.7v0.5c1.1,0,1.6,0.3,1.6,0.9v6.3v1.8v10.7
		c0,8.2,2,12.3,6.2,12.3c2.2,0,4.2-1,6.3-3c1.7-1.6,2.8-3.4,3.5-5.2c0,0.4-0.1,2.9-0.1,7.5h5.1v-0.6h-1.8v-30.6h1.8v-0.5h-6.8V123.8
		z"/>
	<path class="st2" d="M274.9,142.2c-1.2-2.6-3.3-3.8-6.2-3.8c-0.9,0-2.3,0.2-4.1,0.5c0.7-0.2,1.1-0.3,1.3-0.4c1.6-0.7,2.9-2,3.7-3.9
		c0.7-1.5,1-3.2,1-4.9c0-1.6-0.3-3.2-1-4.6c-1-1.9-2.4-2.8-4.2-2.8c-1.9,0-3.6,0.8-5.1,2.4c-1.1,1.2-2,2.7-2.7,4.4l0.2-1.6v-4.8
		c-1.2,0.8-2.8,1.3-4.9,1.6v0.5c1.1,0,1.6,0.3,1.6,1v27.6c0,0.6-0.5,0.9-1.6,0.9v0.5h7.5c3.9,0,7.4-0.9,10.4-2.7
		c3.1-2,4.7-4.4,4.7-7.3C275.5,143.9,275.3,143,274.9,142.2z M257.9,139.5V132c0-1.6,0.8-3.5,2.3-5.8c1.2-1.8,2.3-2.7,3.4-2.7
		c1.1,0,2,0.9,2.9,2.8c0.8,1.5,1.2,3.3,1.2,5.3c0,1.6-0.3,3-0.8,4c-0.8,1.5-2,2.5-3.7,3.1c-0.5,0.2-2.3,0.5-5.4,1L257.9,139.5z
		 M269.3,151.9c-1.9,1.5-4.5,2.3-7.7,2.3h-3.8l0.1-0.5c0-8.4,0-12.8-0.1-13.1c3.2-0.7,5.7-1.1,7.2-1.1c2.4,0,4.2,0.6,5.4,1.9
		c1.1,1.1,1.7,2.6,1.7,4.4C272.2,148.3,271.3,150.3,269.3,151.9z"/>
</g>
<g>
	<path class="st3" d="M65.6,51.9c0.7-1,1.1-1.9,1.2-2.5l-1-0.4c-0.1,0.6-0.5,1.3-0.9,2c-1.5,2-3.6,2.2-5.7,0.7
		c-2.2-1.6-2.5-3.8-1-5.7c0.5-0.7,1.1-1.2,1.6-1.4l-0.7-0.9c-0.4,0.2-1.1,0.7-1.8,1.7c-1.9,2.6-1.4,5.6,1.2,7.5
		C61.1,54.9,63.9,54.2,65.6,51.9z"/>
	<path class="st3" d="M70.1,46.5c1.2-1.3,1.6-3.5-0.5-5.3c-1.7-1.5-3.8-1.5-5.2,0.1c-1.4,1.5-1.3,3.7,0.5,5.3
		C66.7,48.2,68.8,48,70.1,46.5z M65.2,42c1.1-1.2,2.6-0.6,3.6,0.2c1.2,1.1,1.5,2.6,0.7,3.6c-0.9,1-2.4,0.9-3.6-0.2
		C64.7,44.6,64.1,43.2,65.2,42z"/>
	<path class="st3" d="M73.4,42.5l1-0.9l-3-3.3c-0.2-0.2-0.3-0.4-0.4-0.6c-0.3-0.6-0.3-1.5,0.3-2.1c0.8-0.7,1.7-0.4,2.5,0.5l2.9,3.3
		l1-0.9l-3-3.4c-0.2-0.2-0.3-0.4-0.4-0.6c-0.3-0.6-0.2-1.5,0.4-2c0.8-0.7,1.8-0.4,2.7,0.6l2.8,3.1l1-0.9l-2.9-3.2
		c-1.7-1.9-3.2-1.4-3.9-0.8c-0.5,0.5-0.8,0.9-0.9,1.5c-0.1,0.4-0.1,0.8,0,1.3l0,0c-0.8-0.4-1.8-0.4-2.5,0.3c-0.9,0.8-1,1.8-0.8,2.6
		l0,0l-0.8-0.8L68.5,37c0.4,0.4,0.9,0.9,1.4,1.4L73.4,42.5z"/>
	<path class="st3" d="M82.8,34.3l1.1-0.7l-2.5-3.7c-0.1-0.2-0.2-0.4-0.3-0.6c-0.2-0.7-0.1-1.6,0.6-2c0.8-0.6,1.8-0.2,2.4,0.8
		l2.5,3.7l1.1-0.7l-2.5-3.8c-0.1-0.2-0.2-0.4-0.3-0.6c-0.2-0.7,0-1.5,0.6-1.9c0.9-0.6,1.8-0.2,2.6,1l2.3,3.5l1.1-0.7l-2.4-3.6
		c-1.4-2.1-3-1.8-3.8-1.3c-0.6,0.4-0.9,0.8-1.1,1.3c-0.1,0.4-0.2,0.8-0.1,1.3l0,0c-0.8-0.5-1.7-0.6-2.6-0.1c-1,0.7-1.2,1.6-1.2,2.4
		l0,0l-0.7-1l-1,0.7c0.4,0.5,0.7,1,1.2,1.6L82.8,34.3z"/>
	<path class="st3" d="M97.2,24.1l0.6,1l1.1-0.5c-0.3-0.5-0.6-1.1-1-1.8l-2.5-4.8l-1.2,0.6l2.1,4c0.1,0.2,0.2,0.5,0.2,0.7
		c0.1,0.6-0.2,1.5-1,1.9c-1.1,0.6-1.9-0.1-2.5-1.3l-1.9-3.6L89.9,21l2,3.8c1.2,2.3,2.7,2.2,3.7,1.7C96.8,25.9,97.2,24.8,97.2,24.1
		L97.2,24.1z"/>
	<path class="st3" d="M100.8,23.7l1.2-0.5l-1.7-4.1c-0.1-0.2-0.1-0.4-0.2-0.6c-0.1-0.8,0.3-1.6,1.1-2c1.2-0.5,2,0.3,2.4,1.4l1.6,3.9
		l1.2-0.5l-1.7-4.1c-1-2.3-2.7-2.3-3.6-1.9c-1.1,0.5-1.7,1.4-1.7,2.2l0,0L99,16.5l-1.1,0.5c0.3,0.5,0.5,1.1,0.8,1.8L100.8,23.7z"/>
	<rect x="107.4" y="13.3" transform="matrix(0.9478 -0.3189 0.3189 0.9478 0.2255 35.3315)" class="st3" width="1.3" height="7.4"/>
	<path class="st3" d="M106.4,12.3c0.5-0.2,0.7-0.6,0.5-1.1c-0.1-0.4-0.6-0.7-1-0.5c-0.5,0.2-0.7,0.6-0.5,1.1
		C105.5,12.2,106,12.5,106.4,12.3z"/>
	<path class="st3" d="M109.4,13.7l1.1-0.3l1.1,3.9c0.2,0.8,0.5,1.4,1,1.7c0.4,0.3,0.9,0.3,1.5,0.1c0.5-0.1,0.9-0.3,1.1-0.5l-0.3-1
		c-0.1,0.1-0.4,0.2-0.7,0.3c-0.7,0.2-1.1-0.2-1.4-1.1l-1.1-3.8l1.8-0.5l-0.3-1l-1.8,0.5l-0.6-2l-1.2,0.7l0.5,1.7l-1.1,0.3
		L109.4,13.7z"/>
	<path class="st3" d="M118.6,17.6c0,0.1,0,0.2,0,0.3c-0.2,0.7-0.5,1.3-0.8,1.7c-0.3,0.4-0.7,0.7-1,0.9l0.6,1
		c0.3-0.1,0.9-0.5,1.4-1.2c0.7-1,1.1-2.4,1.5-5l0.9-5.6l-1.4,0.3l-0.5,4.5c-0.1,0.6-0.1,1.1-0.1,1.6l0,0c-0.2-0.4-0.5-0.9-0.8-1.4
		l-2.5-3.9l-1.4,0.3l4.1,6.1C118.6,17.4,118.6,17.5,118.6,17.6z"/>
	<path class="st3" d="M131,10.4c-0.9,0.1-1.6,0.8-1.5,1.7c0.1,0.9,0.8,1.5,1.7,1.5c0.9-0.1,1.5-0.8,1.5-1.7
		C132.6,11,131.8,10.4,131,10.4z"/>
	<path class="st3" d="M145.8,10.6L145.8,10.6c1.1-0.4,1.8-1.2,1.9-2.2c0.1-0.8-0.2-1.4-0.7-1.9c-0.6-0.6-1.4-0.8-2.8-0.9
		c-0.9-0.1-1.8,0-2.4,0.1l-0.7,10.1c0.4,0.1,1.1,0.2,2,0.3c1.7,0.1,2.8-0.1,3.6-0.7c0.5-0.5,0.9-1.1,1-2
		C147.9,11.7,146.8,10.9,145.8,10.6z M143.1,6.6c0.2,0,0.6-0.1,1.2,0c1.3,0.1,2.2,0.6,2.1,1.8c-0.1,1-0.9,1.7-2.3,1.6l-1.2-0.1
		L143.1,6.6z M143.6,15c-0.5,0-0.8-0.1-1.1-0.1l0.3-3.9l1.1,0.1c1.4,0.1,2.6,0.8,2.5,2.1C146.3,14.6,145,15.1,143.6,15z"/>
	<path class="st3" d="M153.3,9.4c-2.1-0.3-3.7,1.2-4,3.4c-0.3,2.2,0.8,3.9,3,4.2c1.2,0.2,2,0.1,2.5-0.1l-0.1-1
		c-0.5,0.1-1.1,0.2-2.1,0.1c-1.3-0.2-2.4-1.1-2.1-2.9l5.1,0.8c0-0.1,0.1-0.3,0.1-0.6C156,11.9,155.7,9.8,153.3,9.4z M154.6,12.8
		l-3.9-0.6c0.2-0.9,1-2,2.4-1.8C154.6,10.6,154.7,11.9,154.6,12.8z"/>
	<path class="st3" d="M160.8,17.6L160.8,17.6l-0.1,0.9l1.2,0.3c0-0.5,0.1-1.1,0.3-1.7l0.6-2.7c0.3-1.4,0.2-3.1-2-3.6
		c-0.9-0.2-1.8-0.2-2.5,0.1l0.1,0.9c0.6-0.2,1.3-0.2,2-0.1c1.5,0.3,1.4,1.5,1.2,2l0,0.1c-2.8-0.7-4.5-0.1-4.9,1.6
		c-0.2,1,0.3,2.2,1.7,2.6C159.3,18.4,160.2,18.1,160.8,17.6z M157.9,15.8c0.3-1.4,2-1.3,3.4-0.9l-0.3,1.2c0,0.1-0.1,0.3-0.2,0.4
		c-0.4,0.6-1.1,1-2,0.8C158.2,17.1,157.7,16.6,157.9,15.8z"/>
	<path class="st3" d="M168.8,19.8L168.8,19.8l-0.3,1.2l1.1,0.4c0.1-0.6,0.3-1.2,0.6-1.9l1.7-5.1l-1.3-0.4l-1.4,4.3
		c-0.1,0.2-0.2,0.4-0.3,0.6c-0.4,0.5-1.2,0.9-2.1,0.6c-1.2-0.4-1.3-1.4-0.8-2.7l1.3-3.9l-1.3-0.4l-1.3,4.1c-0.8,2.5,0.3,3.5,1.4,3.9
		C167.3,20.7,168.3,20.2,168.8,19.8z"/>
	<path class="st3" d="M173.7,23.1c0.5,0.2,0.9,0.3,1.2,0.3l0.3-1c-0.2,0-0.4-0.1-0.8-0.2c-0.7-0.3-0.7-0.9-0.4-1.7l1.5-3.7l1.8,0.7
		l0.4-0.9l-1.8-0.7l0.8-2l-1.3-0.2l-0.7,1.6l-1.1-0.4l-0.4,0.9l1.1,0.4l-1.5,3.7c-0.3,0.8-0.5,1.5-0.3,2
		C172.7,22.5,173.1,22.9,173.7,23.1z"/>
	
		<rect x="174.7" y="20.3" transform="matrix(0.4234 -0.9059 0.9059 0.4234 83.8383 173.7655)" class="st3" width="7.4" height="1.3"/>
	<path class="st3" d="M180.5,16.5c0.5,0.2,0.9,0,1.1-0.4c0.2-0.4,0.1-0.9-0.4-1.1c-0.4-0.2-0.9,0-1.1,0.4
		C179.9,15.9,180.1,16.3,180.5,16.5z"/>
	<path class="st3" d="M182.6,20l-3,5.6l1.2,0.6l3-5.6l2.6,1.4l-3,5.6l1.2,0.6l3.5-6.5l-3.8-2l0.2-0.3c0.6-1,1.4-1.7,2.6-1
		c0.6,0.3,1,0.8,1.2,1.1l0.8-0.7c-0.2-0.4-0.8-1-1.4-1.3c-1.8-1-3.4-0.4-4.4,1.3l-0.2,0.3l-0.9-0.5l-0.5,0.9L182.6,20z"/>
	<path class="st3" d="M187.8,26.1c-1.2,1.9-0.8,3.9,1,5.2c0.8,0.5,1.6,0.8,2,0.8l0.4-1c-0.4-0.1-0.9-0.2-1.6-0.6
		c-1.2-0.8-1.6-2.3-0.6-3.7c0.8-1.3,2.3-1.8,3.7-0.9c0.6,0.4,0.9,0.8,1.1,1.1l0.8-0.7c-0.2-0.4-0.7-0.9-1.3-1.3
		C191.3,23.7,189.1,24.2,187.8,26.1z"/>
	<path class="st3" d="M197.8,31.8c-2.2-1.8-4.1-1.9-5.2-0.5c-0.7,0.8-0.7,2.1,0.5,3.1c0.8,0.6,1.8,0.7,2.5,0.5l0,0l-0.5,0.8l1,0.7
		c0.2-0.5,0.6-1,1-1.5l1.7-2.2c0.9-1.2,1.4-2.7-0.4-4.1c-0.7-0.6-1.6-0.9-2.3-1l-0.3,0.9c0.6,0.1,1.3,0.3,1.9,0.7
		c1.2,0.9,0.7,1.9,0.3,2.4L197.8,31.8z M196.5,33.6c-0.1,0.1-0.2,0.2-0.3,0.3c-0.5,0.4-1.4,0.5-2.2-0.1c-0.5-0.4-0.7-1.1-0.2-1.8
		c0.9-1.1,2.3-0.3,3.5,0.6L196.5,33.6z"/>
	<path class="st3" d="M199.3,36.1c-0.6,0.6-0.9,1.2-0.9,1.8c0,0.5,0.2,1,0.7,1.4c0.4,0.3,0.7,0.6,1,0.6l0.6-0.8
		c-0.2-0.1-0.4-0.2-0.6-0.4c-0.6-0.5-0.4-1.1,0.2-1.7l2.6-3l1.4,1.3l0.7-0.8l-1.4-1.3l1.4-1.6l-1.2-0.6l-1.2,1.3l-0.9-0.8l-0.7,0.8
		l0.9,0.8L199.3,36.1z"/>
	
		<rect x="200.6" y="38.2" transform="matrix(0.6969 -0.7171 0.7171 0.6969 34.039 158.3227)" class="st3" width="7.4" height="1.3"/>
	<path class="st3" d="M208.9,35.3c0.3-0.3,0.4-0.8,0-1.2c-0.3-0.3-0.9-0.3-1.2,0c-0.3,0.3-0.3,0.8,0,1.2
		C208.1,35.7,208.6,35.7,208.9,35.3z"/>
	<path class="st3" d="M206.1,40.7c-1.7,1.6-1.8,3.7-0.5,5.2c1.2,1.3,3.3,1.9,5.4,0.1c1.7-1.5,1.9-3.6,0.4-5.2
		C210.1,39.3,208,39,206.1,40.7z M210.7,41.4c1.1,1.2,0.3,2.7-0.6,3.5c-1.2,1.1-2.8,1.2-3.6,0.3c-0.9-1-0.6-2.5,0.6-3.6
		C208.1,40.7,209.7,40.3,210.7,41.4z"/>
	<path class="st3" d="M217.5,48.1c-0.7-1-1.8-1.2-2.6-1.1l0,0l0.9-0.8l-0.7-1c-0.5,0.4-1,0.8-1.6,1.2l-4.3,3.2l0.8,1.1l3.5-2.7
		c0.2-0.1,0.4-0.3,0.6-0.3c0.7-0.3,1.6-0.1,2.2,0.6c0.8,1,0.2,2-0.7,2.7l-3.4,2.5l0.8,1.1l3.5-2.6C218.6,50.5,218.1,48.9,217.5,48.1
		z"/>
	<path class="st3" d="M71.1,175c0.7-0.6,1-1.4,0.9-2.2c0-0.8-0.5-1.7-1.4-2.7c-0.7-0.8-1.4-1.3-1.9-1.7l-7.4,7.1l0.9,1l3-2.9
		c0.2,0.3,0.4,0.6,0.7,0.8c0.9,0.9,2,1.5,3,1.5C69.7,176,70.4,175.7,71.1,175z M66.7,173.7c-0.3-0.3-0.5-0.6-0.7-0.9l2.9-2.8
		c0.2,0.1,0.5,0.4,0.9,0.8c1,1.1,1.2,2.2,0.2,3.2C69.1,175.1,67.9,174.9,66.7,173.7z"/>
	<path class="st3" d="M75.3,178.5c-0.4-0.3-0.8-0.5-1.3-0.6c-0.5-0.1-0.9-0.1-1.4,0.1l0,0l3.1-3.5l-1-0.9l-7.2,8.2l1,0.9l3-3.4
		c0.2-0.2,0.3-0.3,0.5-0.4c0.7-0.4,1.6-0.4,2.3,0.2c1,0.8,0.6,1.9-0.2,2.8l-2.8,3.2l1,0.9l2.9-3.3C76.8,180.7,76.1,179.2,75.3,178.5
		z"/>
	
		<rect x="73.5" y="184.4" transform="matrix(0.6111 -0.7916 0.7916 0.6111 -116.5005 133.1142)" class="st3" width="7.4" height="1.4"/>
	<path class="st3" d="M80.1,180c-0.3,0.4-0.2,0.9,0.1,1.2c0.4,0.3,0.9,0.2,1.2-0.1c0.3-0.4,0.3-0.9-0.1-1.2
		C80.9,179.5,80.4,179.6,80.1,180z"/>
	
		<rect x="75.8" y="185.3" transform="matrix(0.5808 -0.814 0.814 0.5808 -117.3155 144.1148)" class="st3" width="10.9" height="1.4"/>
	<path class="st3" d="M87,187.2c-0.8-0.5-1.7-0.8-2.4-0.7l-0.2,0.9c0.6,0,1.3,0.2,1.9,0.6c1.3,0.8,0.8,1.8,0.5,2.4l-0.1,0.1
		c-2.4-1.5-4.3-1.6-5.3,0c-0.6,0.9-0.5,2.2,0.8,3c0.9,0.6,1.9,0.5,2.5,0.3l0,0l-0.4,0.9l1,0.7c0.2-0.5,0.5-1,0.8-1.6l1.5-2.4
		C88.6,190,88.9,188.4,87,187.2z M85.6,192.4c-0.1,0.1-0.2,0.2-0.3,0.3c-0.5,0.4-1.4,0.6-2.2,0.1c-0.6-0.4-0.9-1-0.4-1.8
		c0.8-1.2,2.3-0.6,3.6,0.3L85.6,192.4z"/>
	<path class="st3" d="M94.6,191.6c-1.1-0.6-2.2-0.3-2.8,0.1l0,0l0.5-1.1l-1.1-0.6c-0.2,0.6-0.5,1.1-0.9,1.8l-2.5,4.8l1.2,0.6l2.1-4
		c0.1-0.2,0.2-0.4,0.4-0.5c0.6-0.6,1.5-0.8,2.2-0.4c1.1,0.6,1.1,1.7,0.5,2.7l-2,3.8l1.2,0.6l2-3.9C96.6,193.3,95.5,192,94.6,191.6z"
		/>
	<path class="st3" d="M100,195.4l1.8,0.8l0.4-0.9l-1.8-0.8l0.8-2l-1.4-0.2l-0.7,1.6l-1.1-0.5l-0.4,0.9l1.1,0.5l-1.6,3.7
		c-0.3,0.8-0.5,1.5-0.3,2c0.2,0.5,0.5,0.8,1.1,1.1c0.5,0.2,0.9,0.3,1.2,0.3l0.3-1c-0.2,0-0.4-0.1-0.8-0.2c-0.7-0.3-0.7-0.9-0.4-1.7
		L100,195.4z"/>
	<path class="st3" d="M107.2,196.9c-0.5-0.2-1-0.2-1.4-0.1c-0.5,0.1-0.9,0.3-1.2,0.6l0,0l1.5-4.4l-1.3-0.4l-3.6,10.3l1.3,0.4
		l1.5-4.2c0.1-0.2,0.2-0.4,0.3-0.6c0.5-0.6,1.3-1,2.2-0.7c1.2,0.4,1.3,1.5,0.9,2.7l-1.4,4l1.3,0.4l1.5-4.2
		C109.4,198.3,108.1,197.2,107.2,196.9z"/>
	<path class="st3" d="M115,199.2c-0.9-0.2-1.8,0.2-2.4,1l-0.1,0l0.3-1.4l-1.1-0.3c-0.1,0.7-0.3,1.4-0.5,2.3l-1.3,4.9l1.3,0.3l1-3.8
		c0.1-0.2,0.1-0.4,0.2-0.6c0.4-0.9,1.3-1.5,2.2-1.2c0.2,0,0.3,0.1,0.4,0.2l0.3-1.2C115.2,199.3,115.1,199.2,115,199.2z"/>
	<path class="st3" d="M119.6,200.2c-2-0.4-3.9,0.7-4.4,3.2c-0.5,2.3,0.8,4.1,2.7,4.4c1.8,0.3,3.9-0.5,4.4-3.1
		C122.8,202.4,121.7,200.6,119.6,200.2z M121,204.4c-0.3,1.6-1.5,2.6-2.8,2.4c-1.3-0.3-2-1.6-1.7-3.2c0.3-1.4,1.2-2.7,2.8-2.4
		C121,201.5,121.3,203.2,121,204.4z"/>
	<path class="st3" d="M128.8,201.6c-1.2-0.1-2.1,0.3-2.8,1.2l0,0l0.1-1.3l-1.2-0.1c0,0.7-0.1,1.5-0.2,2.4l-0.9,8l1.3,0.1l0.4-4l0,0
		c0.4,0.8,1.2,1.3,2.1,1.4c1.7,0.2,3.5-1,3.8-3.6C131.7,203.4,130.5,201.8,128.8,201.6z M130.1,205.6c-0.2,1.7-1.1,2.8-2.6,2.6
		c-1-0.1-1.7-0.8-1.8-1.8c0-0.2,0-0.4,0-0.6l0.1-1.3c0-0.2,0.1-0.4,0.2-0.5c0.4-1,1.3-1.5,2.2-1.4
		C129.7,202.8,130.3,204.1,130.1,205.6z"/>
	<path class="st3" d="M136.5,206.6c-0.2,0.5-0.4,1.1-0.5,1.5h0c-0.1-0.4-0.3-1-0.4-1.5l-1.5-4.4l-1.5,0l2.6,6.9
		c0.1,0.2,0.1,0.3,0.1,0.4c0,0.1-0.1,0.2-0.1,0.3c-0.3,0.7-0.8,1.2-1.2,1.5c-0.4,0.3-0.9,0.5-1.2,0.6l0.3,1.1c0.3-0.1,1-0.3,1.7-0.8
		c0.9-0.8,1.6-2.1,2.7-4.6l2.2-5.2l-1.4,0L136.5,206.6z"/>
	<path class="st3" d="M148.7,203.5c-0.9,0.1-1.5,0.9-1.4,1.8c0.1,0.9,0.9,1.5,1.8,1.4c0.9-0.1,1.5-0.9,1.4-1.8
		C150.4,204,149.6,203.4,148.7,203.5z"/>
	<polygon class="st3" points="161.3,206 160.4,202.4 164.3,201.4 164.1,200.3 160.2,201.3 159.4,198.1 163.5,197.1 163.3,196 
		157.8,197.3 160.2,207.4 165.9,206 165.6,204.9 	"/>
	<path class="st3" d="M170.8,193l-1.3,0.4l1.4,4.2l0,0c-0.5-0.5-1.4-0.7-2.5-0.4c-1.7,0.6-2.7,2.5-1.9,4.8c0.7,2.1,2.5,3.2,4.2,2.6
		c1.2-0.4,1.8-1.3,1.9-2.2l0,0l0.5,1.2l1.2-0.4c-0.2-0.5-0.5-1.2-0.7-1.8L170.8,193z M170.7,203.6c-1.4,0.5-2.5-0.5-2.9-1.9
		c-0.5-1.6-0.1-3,1.2-3.4c1-0.3,1.9,0.1,2.3,0.9c0.1,0.1,0.2,0.4,0.2,0.5l0.4,1.2c0.1,0.2,0.1,0.4,0.1,0.6
		C172.2,202.5,171.6,203.3,170.7,203.6z"/>
	<path class="st3" d="M179.7,193l-1.2,0.5l1.8,4.2c0.1,0.2,0.2,0.5,0.2,0.7c0,0.6-0.3,1.5-1.1,1.8c-1.1,0.5-1.9-0.2-2.5-1.5
		l-1.6-3.8l-1.2,0.5l1.7,4c1,2.4,2.6,2.4,3.6,2c1.2-0.5,1.6-1.6,1.7-2.2l0,0l0.6,1.1l1.1-0.5c-0.3-0.5-0.6-1.1-0.9-1.8L179.7,193z"
		/>
	<path class="st3" d="M187.8,196.1c-1.3,0.7-2.8,0.3-3.6-1.2c-0.7-1.4-0.5-2.9,1-3.7c0.6-0.3,1.2-0.4,1.5-0.4l-0.2-1.1
		c-0.4,0-1.1,0.2-1.8,0.5c-2.1,1.1-2.7,3.3-1.7,5.4c1.1,2,3.1,2.7,5,1.6c0.9-0.5,1.5-1.1,1.7-1.4l-0.7-0.8
		C188.9,195.4,188.5,195.8,187.8,196.1z"/>
	<path class="st3" d="M193.8,188.3c-0.8-1.3-2.1-2.3-4-1.1c-0.8,0.5-1.4,1.2-1.7,1.9l0.7,0.6c0.3-0.6,0.8-1.1,1.3-1.5
		c1.3-0.8,2,0,2.3,0.5l0.1,0.1c-2.4,1.5-3.3,3.2-2.3,4.7c0.6,0.9,1.8,1.4,3.1,0.6c0.9-0.6,1.3-1.4,1.3-2.2l0,0l0.6,0.7l1-0.7
		c-0.3-0.4-0.7-0.9-1.1-1.4L193.8,188.3z M193.1,193.1c-0.6,0.4-1.3,0.3-1.8-0.4c-0.8-1.2,0.5-2.3,1.8-3.1l0.7,1.1
		c0.1,0.1,0.1,0.3,0.2,0.4C194.1,191.8,193.9,192.6,193.1,193.1z"/>
	<path class="st3" d="M200,188.3c-0.6,0.4-1.1,0.2-1.7-0.6l-2.4-3.2l1.6-1.1l-0.6-0.8l-1.6,1.1l-1.3-1.7l-0.9,1.1l1,1.4l-0.9,0.7
		l0.6,0.8l0.9-0.7l2.4,3.3c0.5,0.7,1,1.2,1.6,1.3c0.5,0.1,1,0,1.5-0.4c0.4-0.3,0.7-0.6,0.9-0.9l-0.6-0.8
		C200.5,187.9,200.3,188.1,200,188.3z"/>
	<path class="st3" d="M196.9,178.8c-0.4,0.3-0.4,0.8-0.1,1.2c0.3,0.4,0.8,0.4,1.2,0.1c0.4-0.3,0.5-0.8,0.2-1.2
		C197.8,178.6,197.3,178.5,196.9,178.8z"/>
	
		<rect x="200.4" y="180.3" transform="matrix(0.7804 -0.6253 0.6253 0.7804 -70.8989 166.0954)" class="st3" width="1.4" height="7.4"/>
	<path class="st3" d="M203.2,177c-1.5,1.4-1.7,3.6-0.1,5.4c1.6,1.7,3.7,1.8,5.2,0.4c1.3-1.2,1.9-3.4,0.1-5.4
		C206.9,175.8,204.8,175.6,203.2,177z M207.7,182.1c-1,0.9-2.5,0.6-3.6-0.6c-0.9-1-1.4-2.6-0.2-3.7c1.2-1.1,2.7-0.3,3.6,0.6
		C208.6,179.6,208.7,181.2,207.7,182.1z"/>
	<path class="st3" d="M209.6,170.6c-0.8,0.9-0.9,2-0.6,2.8l0,0l-1-0.8l-0.8,0.9c0.5,0.4,1,0.8,1.5,1.3l4,3.7l0.9-1l-3.3-3
		c-0.2-0.2-0.3-0.3-0.4-0.5c-0.4-0.7-0.4-1.6,0.2-2.3c0.9-0.9,1.9-0.6,2.8,0.2l3.1,2.9l0.9-1l-3.3-3
		C211.9,169.1,210.3,169.9,209.6,170.6z"/>
</g>
</svg>
